<svg xmlns="http://www.w3.org/2000/svg" viewBox="0 0 24 24" fill="none" stroke="#e5573c" stroke-width="2" stroke-linecap="round" stroke-linejoin="round">
  <path d="M5 12h4c.6 0 1 .4 1 1v3c0 .6-.4 1-1 1H5c-.6 0-1-.4-1-1v-3c0-.6.4-1 1-1Z"/>
  <path d="m12 12-2-2H7"/>
  <path d="M12 17H7"/>
  <path d="M19 17h-4"/>
  <path d="M19 12h-7"/>
  <path d="m12 17 5-5"/>
  <path d="M19 7V5c0-1.1-.9-2-2-2H5c-1.1 0-2 .9-2 2v9c0 1.1.9 2 2 2h1"/>
  <path d="M17.8 15.2 19 12l1.2 3.2c.1.3.5.3.6 0L22 12l1.2 3.2c.1.3.5.3.6 0L25 12h-2"/>
  <circle cx="17" cy="17" r="3"/>
  <path d="M19 17h.1"/>
  <circle cx="7" cy="17" r="3"/>
  <path d="M9 17h.1"/>
</svg> 